<?xml version="1.0" standalone="no"?>
<!DOCTYPE svg PUBLIC "-//W3C//DTD SVG 20010904//EN"
 "http://www.w3.org/TR/2001/REC-SVG-20010904/DTD/svg10.dtd">
<svg version="1.0" xmlns="http://www.w3.org/2000/svg"
 width="3775.000000pt" height="581.000000pt" viewBox="0 0 3775.000000 581.000000"
 preserveAspectRatio="xMidYMid meet">

<g transform="translate(0.000000,581.000000) scale(0.100000,-0.100000)"
fill="#000000" stroke="none">
<path d="M36125 5453 l-50 -16 30 -10 c17 -5 64 -23 105 -39 73 -30 81 -31
250 -32 96 -1 190 -6 209 -11 59 -14 27 10 -64 49 -128 55 -222 76 -334 75
-57 0 -116 -7 -146 -16z"/>
<path d="M35935 5323 c-50 -10 -83 -25 -116 -50 -54 -41 -198 -203 -223 -251
-16 -31 -16 -31 64 23 87 59 158 97 255 135 33 14 90 43 128 66 37 23 94 52
127 64 33 12 60 24 60 26 0 11 -234 0 -295 -13z"/>
<path d="M36400 5240 c-25 -4 -58 -13 -75 -20 -30 -11 -29 -12 55 -39 107 -34
223 -95 319 -166 41 -30 79 -55 86 -55 7 0 49 -18 94 -41 160 -80 294 -211
380 -371 48 -87 67 -109 77 -84 14 37 -31 211 -86 331 -89 196 -327 369 -590
429 -85 20 -204 27 -260 16z"/>
<path d="M36001 4975 c-117 -26 -147 -42 -205 -114 -82 -101 -135 -179 -110
-161 168 118 226 148 344 175 41 9 84 22 95 28 11 6 49 25 83 42 l64 32 -39 6
c-60 10 -162 7 -232 -8z"/>
<path d="M36385 4896 l-40 -12 40 -7 c53 -9 168 -65 230 -112 27 -21 75 -51
106 -67 31 -16 76 -46 100 -66 l44 -37 -29 40 c-69 95 -192 202 -288 251 -52
26 -101 29 -163 10z"/>
<path d="M23790 4853 c-117 -8 -346 -47 -483 -82 -535 -137 -1029 -461 -1343
-881 -407 -544 -557 -1177 -434 -1831 101 -537 404 -1047 820 -1382 365 -294
807 -484 1312 -564 133 -21 1029 -31 1208 -13 170 17 391 64 558 119 339 112
578 251 801 466 234 227 376 462 475 787 67 220 75 228 245 258 120 21 204 78
256 171 27 49 30 62 30 149 0 84 -3 103 -29 157 -75 163 -275 262 -656 322
-214 35 -349 41 -878 41 -557 0 -696 -8 -932 -56 -290 -58 -447 -123 -541
-221 -77 -80 -102 -149 -97 -258 5 -97 29 -154 87 -212 79 -78 162 -103 353
-103 105 0 107 -1 150 -33 59 -44 90 -110 96 -201 8 -127 -26 -228 -105 -316
-25 -28 -55 -53 -68 -56 -54 -14 -261 120 -395 255 -262 264 -450 701 -505
1169 -30 259 -16 584 35 774 84 319 285 564 546 669 73 29 82 31 124 20 64
-17 181 -74 262 -127 94 -63 222 -186 336 -324 53 -63 127 -150 165 -192 172
-194 421 -268 642 -194 l81 27 74 -24 c209 -69 399 -28 538 117 116 121 172
283 172 499 0 319 -128 636 -344 853 -113 113 -169 139 -296 139 -82 0 -108
-5 -189 -34 l-94 -33 -71 33 c-88 41 -168 48 -266 25 -68 -17 -68 -17 -186 13
-140 35 -269 57 -414 70 -93 9 -923 12 -1040 4z"/>
<path d="M36890 4778 c55 -117 91 -249 89 -323 -1 -33 2 -92 6 -131 10 -89
-10 -156 -60 -204 -20 -19 -53 -71 -74 -115 -45 -93 -113 -163 -207 -216 l-59
-34 30 -6 c56 -12 181 -9 240 6 95 24 204 83 261 140 99 99 141 224 131 388
-6 102 -27 170 -83 280 -46 87 -182 228 -261 270 l-52 28 39 -83z"/>
<path d="M1069 4800 c-525 -33 -883 -152 -1006 -337 -42 -63 -67 -160 -58
-227 16 -128 71 -182 217 -215 174 -40 268 -116 366 -293 28 -51 373 -804 767
-1673 394 -869 740 -1625 768 -1680 81 -159 190 -249 352 -290 78 -20 236 -20
305 1 49 14 58 14 111 0 90 -26 203 -30 289 -12 205 44 302 150 500 546 57
113 437 880 845 1706 416 843 766 1539 798 1588 108 166 144 187 375 225 67
12 141 30 165 42 90 45 137 114 145 215 19 243 -157 360 -593 393 -205 16
-880 23 -1070 11 -477 -29 -739 -130 -799 -307 -44 -128 3 -218 164 -317 52
-32 97 -68 118 -96 33 -43 34 -47 29 -115 -5 -80 -14 -102 -227 -575 -143
-318 -296 -630 -309 -630 -7 0 -411 905 -464 1040 -19 48 -30 95 -31 131 -1
70 25 107 128 184 78 57 125 106 153 158 25 47 24 169 -2 222 -81 163 -355
258 -845 294 -184 14 -1023 21 -1191 11z"/>
<path d="M13125 4724 c-49 -7 -164 -18 -255 -23 -246 -14 -503 -65 -976 -191
-357 -96 -466 -142 -571 -245 -70 -68 -98 -137 -87 -211 15 -100 77 -157 231
-212 86 -31 161 -75 191 -111 39 -47 52 -96 52 -200 0 -103 0 -103 -22 -97
-135 40 -218 50 -418 50 -136 0 -220 -4 -250 -13 -25 -7 -126 -16 -225 -21
-199 -10 -314 -32 -473 -94 -447 -172 -770 -490 -967 -951 -102 -240 -140
-443 -133 -720 7 -271 55 -458 183 -721 228 -464 601 -796 1020 -906 113 -30
130 -31 310 -32 144 -1 208 3 265 16 45 10 139 19 235 21 194 6 292 30 464
112 62 30 115 55 116 55 1 0 5 -24 8 -52 7 -72 24 -104 61 -120 43 -18 328
-15 526 5 85 9 220 22 300 27 246 19 441 50 683 111 282 71 472 179 527 301
27 60 27 177 0 234 -22 45 -88 111 -187 186 -73 56 -108 105 -124 173 -9 37
-14 517 -18 1770 -7 1918 0 1747 -75 1813 -70 61 -196 76 -391 46z m-1552
-2094 c65 -71 102 -171 129 -350 18 -115 18 -665 0 -822 -26 -229 -93 -448
-157 -508 l-21 -20 -42 35 c-90 78 -171 254 -209 455 -24 131 -24 511 1 655
24 144 59 268 104 372 42 97 124 223 146 223 8 0 30 -18 49 -40z"/>
<path d="M36065 4705 c-68 -18 -136 -91 -341 -365 -162 -215 -299 -364 -391
-425 -24 -15 -43 -30 -43 -32 0 -3 19 -2 43 2 118 20 228 92 382 250 123 125
131 136 159 217 35 97 117 176 226 218 30 12 68 31 85 44 16 13 54 37 84 53
l53 31 -51 11 c-68 14 -144 13 -206 -4z"/>
<path d="M35473 4598 c-74 -90 -185 -244 -208 -287 -32 -63 -6 -41 67 56 95
125 215 303 204 303 -2 0 -30 -33 -63 -72z"/>
<path d="M36425 4578 c-22 -11 -42 -22 -44 -24 -2 -2 13 -21 34 -41 21 -21 52
-67 69 -103 26 -55 30 -77 30 -140 0 -133 -50 -195 -194 -241 l-55 -17 72 -1
c139 -2 253 68 283 172 20 75 9 180 -28 258 -29 60 -104 160 -120 159 -4 -1
-25 -10 -47 -22z"/>
<path d="M35674 4457 c-45 -45 -116 -122 -159 -172 -42 -49 -116 -130 -164
-179 -47 -49 -75 -83 -61 -76 101 52 248 190 335 315 27 39 69 96 93 128 24
32 42 60 40 62 -2 3 -40 -33 -84 -78z"/>
<path d="M28375 3563 c-329 -31 -900 -191 -1158 -325 -246 -128 -326 -339
-187 -491 37 -40 73 -65 154 -105 111 -56 148 -89 167 -150 37 -118 12 -1041
-36 -1316 -19 -110 -50 -156 -160 -238 -161 -120 -225 -214 -225 -332 0 -181
117 -289 385 -356 67 -17 149 -46 186 -65 206 -108 688 -159 1277 -136 589 23
784 64 909 189 84 84 123 197 103 303 -13 65 -30 96 -82 145 -60 57 -95 76
-233 124 -66 23 -133 52 -149 63 -37 26 -72 104 -85 188 -40 251 -40 983 0
1106 l10 31 67 -50 c100 -76 180 -107 317 -124 39 -4 71 -15 90 -30 145 -110
409 -135 628 -59 106 37 174 82 277 185 73 73 105 114 138 177 146 278 146
516 1 794 -60 116 -159 213 -271 268 -87 43 -180 71 -233 71 -17 0 -69 20
-116 44 -117 61 -205 86 -324 92 -222 12 -424 -63 -582 -215 l-52 -50 -11 38
c-20 76 -61 94 -234 100 l-139 6 -10 30 c-14 45 -44 72 -92 84 -41 10 -238 13
-330 4z"/>
<path d="M6885 3520 c-449 -40 -836 -183 -1172 -436 -361 -271 -580 -606 -662
-1010 -79 -388 -32 -793 127 -1110 214 -426 646 -735 1165 -835 29 -5 157 -23
285 -39 644 -82 1154 3 1622 272 477 274 791 645 895 1056 69 274 56 597 -36
876 -42 128 -157 354 -237 465 -259 363 -648 611 -1092 696 -297 57 -675 84
-895 65z m175 -871 c158 -164 323 -775 346 -1276 10 -216 -29 -349 -122 -414
-68 -47 -77 -47 -140 12 -68 65 -104 138 -172 344 -122 370 -216 868 -198
1055 8 85 36 168 77 226 35 48 111 104 141 104 11 0 41 -23 68 -51z"/>
<path d="M32485 3519 c-311 -30 -659 -131 -950 -276 -269 -136 -453 -309 -525
-498 -35 -91 -33 -209 4 -292 34 -75 94 -134 173 -170 73 -34 193 -42 281 -19
l63 16 40 -30 c129 -93 342 -87 519 17 85 50 236 201 343 343 117 156 151 195
165 186 35 -21 72 -250 74 -458 2 -224 -15 -250 -175 -268 -45 -6 -132 -10
-193 -10 -529 0 -1004 -172 -1279 -462 -177 -186 -254 -384 -242 -622 19 -377
248 -685 603 -812 110 -40 293 -74 393 -74 37 0 90 -6 117 -14 176 -52 436
-69 624 -42 170 25 338 85 491 177 l35 21 65 -41 c110 -69 201 -93 364 -98
112 -4 153 -9 205 -28 225 -79 495 -53 745 72 119 59 203 120 296 212 155 156
244 340 226 471 -10 80 -46 108 -165 131 -35 6 -74 21 -88 31 -62 49 -105 178
-124 372 -5 60 -10 320 -10 578 0 496 -6 602 -45 754 -71 282 -297 510 -644
650 -166 68 -416 124 -548 124 -22 0 -94 11 -159 24 -218 45 -447 57 -679 35z
m208 -2314 c-6 -105 -20 -179 -46 -239 l-21 -49 -13 39 c-40 113 -23 268 40
372 l32 54 7 -49 c3 -26 4 -84 1 -128z"/>
<path d="M15558 3489 c-553 -45 -1058 -284 -1422 -670 -336 -357 -489 -861
-421 -1382 47 -361 178 -631 425 -877 261 -259 567 -408 981 -476 135 -22 903
-32 1074 -14 519 55 1007 281 1378 639 287 277 435 577 469 945 25 285 -30
579 -161 850 -176 365 -458 643 -826 817 -168 79 -331 126 -532 154 -122 18
-804 27 -965 14z m257 -964 c137 -245 260 -775 272 -1170 6 -212 -5 -285 -54
-359 l-26 -40 -28 35 c-74 90 -158 316 -239 644 -74 300 -102 472 -104 645 -1
164 11 222 65 303 l32 48 24 -23 c14 -13 40 -50 58 -83z"/>
<path d="M36521 3489 c-378 -49 -1086 -242 -1338 -365 -155 -75 -230 -217
-189 -359 22 -75 84 -137 190 -190 168 -85 190 -125 205 -366 46 -714 29
-1069 -58 -1255 -32 -69 -71 -110 -205 -216 -48 -38 -87 -79 -100 -103 -28
-54 -33 -149 -11 -214 19 -59 88 -140 149 -176 60 -35 204 -71 384 -94 86 -12
209 -30 272 -41 294 -51 454 -63 815 -63 447 0 694 36 893 130 164 77 242 210
212 359 -11 53 -19 65 -74 119 -34 33 -89 80 -121 105 -109 83 -155 169 -175
322 -6 52 -10 467 -10 1138 0 705 -4 1068 -11 1093 -5 21 -23 53 -40 71 -45
52 -99 61 -262 46 -73 -7 -135 -14 -140 -17 -4 -2 -19 10 -34 28 -15 17 -42
38 -60 45 -36 15 -186 17 -292 3z"/>
<path d="M19793 2489 c-208 -25 -434 -123 -641 -279 -76 -57 -200 -176 -191
-184 2 -2 35 11 72 30 152 74 336 129 515 155 168 24 481 -2 605 -50 39 -15
45 -14 52 9 7 23 62 80 76 80 5 0 -6 -14 -26 -31 -86 -76 -63 -230 53 -346 90
-90 213 -127 292 -86 81 42 100 154 44 267 -46 95 -168 193 -244 197 -25 1
-25 1 -2 7 23 7 23 7 -17 65 -23 32 -41 62 -41 66 0 15 -118 62 -202 81 -47
10 -70 19 -53 19 46 1 184 -35 287 -74 98 -38 196 -92 288 -158 75 -55 216
-198 273 -278 151 -212 247 -529 232 -764 -8 -123 -34 -265 -69 -369 -26 -76
-74 -179 -60 -126 21 74 23 107 20 240 -3 119 -9 159 -29 225 -68 219 -160
391 -304 568 -31 37 -59 67 -63 67 -4 0 -13 -7 -20 -16 -22 -25 -51 -37 -110
-43 l-55 -6 -12 -135 c-23 -257 -78 -454 -180 -651 -193 -373 -562 -654 -955
-725 -83 -16 -87 -18 -68 -31 25 -18 185 -88 249 -110 108 -37 261 -61 394
-62 238 -3 410 36 625 139 67 32 122 57 122 55 0 -2 -48 -29 -106 -61 -123
-66 -256 -115 -387 -144 l-92 -20 120 4 c279 11 522 98 731 262 292 228 452
540 479 939 11 161 -39 398 -122 573 -114 241 -329 461 -571 581 -97 49 -260
100 -369 116 -103 15 -426 17 -540 4z m534 -235 c-3 -3 -12 -4 -19 -1 -8 3 -5
6 6 6 11 1 17 -2 13 -5z m141 -108 c89 -47 149 -193 100 -243 -24 -23 -35 -10
-48 55 -12 66 -29 98 -74 141 -55 53 -42 80 22 47z m543 -1513 c-12 -20 -14
-14 -5 12 4 9 9 14 11 11 3 -2 0 -13 -6 -23z m-46 -93 c-9 -16 -18 -30 -21
-30 -2 0 2 14 11 30 9 17 18 30 21 30 2 0 -2 -13 -11 -30z m-37 -57 c-8 -10
-34 -41 -57 -69 -23 -28 -61 -66 -84 -85 -25 -20 -4 8 53 68 52 56 97 102 99
103 2 0 -3 -8 -11 -17z m-188 -187 c0 -2 -8 -10 -17 -17 -16 -13 -17 -12 -4 4
13 16 21 21 21 13z m-40 -31 c0 -2 -10 -9 -22 -15 -22 -11 -22 -10 -4 4 21 17
26 19 26 11z"/>
</g>
</svg>
